# Blender3D v248 OBJ File: l3dx.blend
# www.blender3d.org
mtllib sample.mtl
v 0.707106 -1.000000 -0.746468
v 0.831469 -1.000000 -0.594932
v 0.923879 -1.000000 -0.422045
v 0.980785 -1.000000 -0.234452
v 1.000000 -1.000000 -0.039362
v 0.980785 -1.000000 0.155729
v 0.923879 -1.000000 0.343322
v 0.831469 -1.000000 0.516209
v 0.707106 -1.000000 0.667745
v 0.555570 -1.000000 0.792108
v 0.382683 -1.000000 0.884518
v 0.195090 -1.000000 0.941424
v -0.000001 -1.000000 0.960638
v -0.195091 -1.000000 0.941424
v -0.382684 -1.000000 0.884518
v -0.555571 -1.000000 0.792108
v -0.707108 -1.000000 0.667745
v -0.831470 -1.000000 0.516208
v -0.923880 -1.000000 0.343321
v -0.980786 -1.000000 0.155728
v -1.000000 -1.000000 -0.039363
v -0.980785 -1.000000 -0.234453
v -0.923880 -1.000000 -0.422046
v -0.831470 -1.000000 -0.594933
v -0.707106 -1.000000 -0.746469
v -0.555570 -1.000000 -0.870832
v -0.382683 -1.000000 -0.963242
v -0.195089 -1.000000 -1.020147
v 0.000001 -1.000000 -1.039362
v 0.195091 -1.000000 -1.020147
v 0.382684 -1.000000 -0.963241
v 0.555571 -1.000000 -0.870830
v 0.707108 1.000000 -0.746467
v 0.831470 1.000000 -0.594930
v 0.923880 1.000000 -0.422043
v 0.980785 1.000000 -0.234450
v 1.000000 1.000000 -0.039359
v 0.980784 1.000000 0.155730
v 0.923878 1.000000 0.343323
v 0.831469 1.000000 0.516209
v 0.707106 1.000000 0.667745
v 0.555570 1.000000 0.792108
v 0.382683 1.000000 0.884518
v 0.195090 1.000000 0.941423
v 0.000000 1.000000 0.960638
v -0.195089 1.000000 0.941424
v -0.382682 1.000000 0.884518
v -0.555569 1.000000 0.792109
v -0.707106 1.000000 0.667747
v -0.831469 1.000000 0.516211
v -0.923879 1.000000 0.343325
v -0.980785 1.000000 0.155732
v -1.000000 1.000000 -0.039358
v -0.980787 1.000000 -0.234448
v -0.923882 1.000000 -0.422041
v -0.831473 1.000000 -0.594928
v -0.707111 1.000000 -0.746465
v -0.555576 1.000000 -0.870828
v -0.382690 1.000000 -0.963239
v -0.195097 1.000000 -1.020146
v -0.000008 1.000000 -1.039362
v 0.195082 1.000000 -1.020149
v 0.382675 1.000000 -0.963244
v 0.555563 1.000000 -0.870836
v -0.000000 -1.000000 -0.039362
v -0.000000 1.000000 -0.039362
vt 1.000000 0.519681
vt 0.902043 0.873234
vt 0.889604 0.797466
vt 0.500000 0.519681
vt 0.610396 0.797465
vt 0.597957 0.873233
vt 0.881294 0.711023
vt 0.618706 0.711022
vt 0.876544 0.617226
vt 0.623456 0.617225
vt 0.875000 0.519681
vt 0.625000 0.519680
vt 0.876544 0.422136
vt 0.623456 0.422135
vt 0.881294 0.328339
vt 0.618706 0.328338
vt 0.889604 0.241896
vt 0.610396 0.241895
vt 0.902043 0.166127
vt 0.597957 0.166127
vt 0.919291 0.103946
vt 0.580709 0.103946
vt 0.941831 0.057741
vt 0.558169 0.057741
vt 0.969336 0.029288
vt 0.530664 0.029288
vt 1.000000 0.019681
vt 0.500000 0.019681
vt 0.000000 0.519681
vt 0.000000 0.019681
vt 0.030665 0.029288
vt 0.469336 0.029288
vt 0.058170 0.057741
vt 0.441831 0.057741
vt 0.080709 0.103946
vt 0.419291 0.103945
vt 0.097957 0.166128
vt 0.402043 0.166127
vt 0.110396 0.241896
vt 0.389604 0.241895
vt 0.118706 0.328340
vt 0.381294 0.328338
vt 0.123456 0.422136
vt 0.376544 0.422134
vt 0.125000 0.519681
vt 0.375000 0.519679
vt 0.123456 0.617227
vt 0.376544 0.617224
vt 0.118706 0.711023
vt 0.381294 0.711020
vt 0.110396 0.797467
vt 0.389604 0.797464
vt 0.097957 0.873235
vt 0.402043 0.873232
vt 0.080709 0.935416
vt 0.419290 0.935414
vt 0.058169 0.981621
vt 0.441830 0.981619
vt 0.030664 1.010074
vt 0.469334 1.010073
vt 1.030664 1.010074
vt 1.000000 1.019681
vt 0.499999 1.019681
vt 0.969335 1.010073
vt 0.530663 1.010074
vt 0.941830 0.981620
vt 0.558168 0.981622
vt 0.919291 0.935415
vt 0.580708 0.935418
vt 1.499999 1.019681
vt 1.469334 1.010073
vn 0.000000 -1.000000 0.000000
vn -0.000000 1.000000 -0.000000
vn 0.634394 0.000000 -0.773010
vn 0.634391 0.000000 -0.773013
vn 0.471389 0.000000 -0.881925
vn 0.471398 -0.000001 -0.881921
vn 0.290277 0.000000 -0.956943
vn 0.290287 -0.000001 -0.956940
vn 0.098010 0.000000 -0.995185
vn 0.098019 -0.000001 -0.995185
vn -0.098024 0.000000 -0.995184
vn -0.098015 -0.000000 -0.995185
vn -0.290291 0.000000 -0.956939
vn -0.290283 -0.000000 -0.956941
vn -0.471402 0.000000 -0.881918
vn -0.471396 -0.000000 -0.881922
vn -0.634398 0.000000 -0.773007
vn -0.634393 -0.000000 -0.773011
vn -0.773015 0.000000 -0.634388
vn -0.773009 -0.000001 -0.634395
vn -0.881923 0.000000 -0.471393
vn -0.881921 -0.000000 -0.471397
vn -0.956942 0.000000 -0.290280
vn -0.956940 -0.000000 -0.290285
vn -0.995185 0.000000 -0.098012
vn -0.995185 -0.000000 -0.098019
vn -0.995184 0.000000 0.098022
vn -0.995185 -0.000000 0.098017
vn -0.956939 0.000000 0.290288
vn -0.956940 -0.000000 0.290285
vn -0.881920 0.000000 0.471399
vn -0.881922 -0.000000 0.471395
vn -0.773009 0.000000 0.634395
vn -0.773010 -0.000000 0.634393
vn -0.634392 0.000000 0.773012
vn -0.634394 -0.000000 0.773010
vn -0.471394 0.000000 0.881922
vn -0.471397 -0.000000 0.881921
vn -0.290283 0.000000 0.956941
vn -0.290285 -0.000000 0.956940
vn -0.098016 0.000000 0.995185
vn -0.098017 -0.000000 0.995185
vn 0.098018 0.000000 0.995185
vn 0.098017 -0.000000 0.995185
vn 0.290285 0.000000 0.956940
vn 0.471396 0.000000 0.881921
vn 0.634393 0.000000 0.773011
vn 0.634393 0.000000 0.773010
vn 0.773011 -0.000000 0.634393
vn 0.773010 0.000000 0.634394
vn 0.881921 -0.000000 0.471397
vn 0.956940 -0.000000 0.290285
vn 0.956940 0.000000 0.290286
vn 0.995185 -0.000000 0.098017
vn 0.995185 0.000000 0.098019
vn 0.995185 -0.000000 -0.098017
vn 0.995185 0.000000 -0.098015
vn 0.956940 -0.000000 -0.290285
vn 0.956941 0.000000 -0.290282
vn 0.881921 -0.000000 -0.471398
vn 0.881922 0.000000 -0.471395
vn 0.773011 -0.000000 -0.634393
vn 0.773012 0.000000 -0.634391
usemtl Material
s off
f 65/1/1 1/2/1 2/3/1
f 66/4/2 34/5/2 33/6/2
f 65/1/1 2/3/1 3/7/1
f 66/4/2 35/8/2 34/5/2
f 65/1/1 3/7/1 4/9/1
f 66/4/2 36/10/2 35/8/2
f 65/1/1 4/9/1 5/11/1
f 66/4/2 37/12/2 36/10/2
f 65/1/1 5/11/1 6/13/1
f 66/4/2 38/14/2 37/12/2
f 65/1/1 6/13/1 7/15/1
f 66/4/2 39/16/2 38/14/2
f 65/1/1 7/15/1 8/17/1
f 66/4/2 40/18/2 39/16/2
f 65/1/1 8/17/1 9/19/1
f 66/4/2 41/20/2 40/18/2
f 65/1/1 9/19/1 10/21/1
f 66/4/2 42/22/2 41/20/2
f 65/1/1 10/21/1 11/23/1
f 66/4/2 43/24/2 42/22/2
f 65/1/1 11/23/1 12/25/1
f 66/4/2 44/26/2 43/24/2
f 65/1/1 12/25/1 13/27/1
f 66/4/2 45/28/2 44/26/2
f 65/29/1 13/30/1 14/31/1
f 66/4/2 46/32/2 45/28/2
f 65/29/1 14/31/1 15/33/1
f 66/4/2 47/34/2 46/32/2
f 65/29/1 15/33/1 16/35/1
f 66/4/2 48/36/2 47/34/2
f 65/29/1 16/35/1 17/37/1
f 66/4/2 49/38/2 48/36/2
f 65/29/1 17/37/1 18/39/1
f 66/4/2 50/40/2 49/38/2
f 65/29/1 18/39/1 19/41/1
f 66/4/2 51/42/2 50/40/2
f 65/29/1 19/41/1 20/43/1
f 66/4/2 52/44/2 51/42/2
f 65/29/1 20/43/1 21/45/1
f 66/4/2 53/46/2 52/44/2
f 65/29/1 21/45/1 22/47/1
f 66/4/2 54/48/2 53/46/2
f 65/29/1 22/47/1 23/49/1
f 66/4/2 55/50/2 54/48/2
f 65/29/1 23/49/1 24/51/1
f 66/4/2 56/52/2 55/50/2
f 65/29/1 24/51/1 25/53/1
f 66/4/2 57/54/2 56/52/2
f 65/29/1 25/53/1 26/55/1
f 66/4/2 58/56/2 57/54/2
f 65/29/1 26/55/1 27/57/1
f 66/4/2 59/58/2 58/56/2
f 65/29/1 27/57/1 28/59/1
f 66/4/2 60/60/2 59/58/2
f 65/1/1 28/61/1 29/62/1
f 66/4/2 61/63/2 60/60/2
f 65/1/1 29/62/1 30/64/1
f 66/4/2 62/65/2 61/63/2
f 65/1/1 30/64/1 31/66/1
f 66/4/2 63/67/2 62/65/2
f 65/1/1 31/66/1 32/68/1
f 66/4/2 64/69/2 63/67/2
f 32/68/1 1/2/1 65/1/1
f 66/4/2 33/6/2 64/69/2
f 33/6/3 1/2/3 32/68/3
f 33/6/4 32/68/4 64/69/4
f 31/66/5 63/67/5 64/69/5
f 31/66/6 64/69/6 32/68/6
f 30/64/7 62/65/7 63/67/7
f 30/64/8 63/67/8 31/66/8
f 29/62/9 61/70/9 62/65/9
f 29/62/10 62/65/10 30/64/10
f 28/61/11 60/71/11 61/70/11
f 28/61/12 61/70/12 29/62/12
f 27/57/13 59/58/13 60/60/13
f 27/57/14 60/60/14 28/59/14
f 26/55/15 58/56/15 59/58/15
f 26/55/16 59/58/16 27/57/16
f 25/53/17 57/54/17 58/56/17
f 25/53/18 58/56/18 26/55/18
f 24/51/19 56/52/19 57/54/19
f 24/51/20 57/54/20 25/53/20
f 23/49/21 55/50/21 56/52/21
f 23/49/22 56/52/22 24/51/22
f 22/47/23 54/48/23 55/50/23
f 22/47/24 55/50/24 23/49/24
f 21/45/25 53/46/25 54/48/25
f 21/45/26 54/48/26 22/47/26
f 20/43/27 52/44/27 53/46/27
f 20/43/28 53/46/28 21/45/28
f 19/41/29 51/42/29 52/44/29
f 19/41/30 52/44/30 20/43/30
f 18/39/31 50/40/31 51/42/31
f 18/39/32 51/42/32 19/41/32
f 17/37/33 49/38/33 50/40/33
f 17/37/34 50/40/34 18/39/34
f 16/35/35 48/36/35 49/38/35
f 16/35/36 49/38/36 17/37/36
f 15/33/37 47/34/37 48/36/37
f 15/33/38 48/36/38 16/35/38
f 14/31/39 46/32/39 47/34/39
f 14/31/40 47/34/40 15/33/40
f 13/30/41 45/28/41 46/32/41
f 13/30/42 46/32/42 14/31/42
f 12/25/43 44/26/43 45/28/43
f 12/25/44 45/28/44 13/27/44
f 11/23/45 43/24/45 44/26/45
f 11/23/45 44/26/45 12/25/45
f 10/21/46 42/22/46 43/24/46
f 10/21/46 43/24/46 11/23/46
f 9/19/47 41/20/47 42/22/47
f 9/19/48 42/22/48 10/21/48
f 8/17/49 40/18/49 9/19/49
f 40/18/50 41/20/50 9/19/50
f 7/15/51 39/16/51 8/17/51
f 39/16/51 40/18/51 8/17/51
f 6/13/52 38/14/52 7/15/52
f 38/14/53 39/16/53 7/15/53
f 5/11/54 37/12/54 6/13/54
f 37/12/55 38/14/55 6/13/55
f 4/9/56 36/10/56 5/11/56
f 36/10/57 37/12/57 5/11/57
f 3/7/58 35/8/58 4/9/58
f 35/8/59 36/10/59 4/9/59
f 2/3/60 34/5/60 3/7/60
f 34/5/61 35/8/61 3/7/61
f 1/2/62 33/6/62 2/3/62
f 33/6/63 34/5/63 2/3/63
